<?xml version="1.0" encoding="UTF-8" standalone="no"?>
<!DOCTYPE svg PUBLIC "-//W3C//DTD SVG 1.1//EN"
 "http://www.w3.org/Graphics/SVG/1.1/DTD/svg11.dtd">
<!-- Generated by graphviz version 2.38.0 (20140413.2041)
 -->
<!-- Title: models_diagram Pages: 1 -->
<svg width="373pt" height="523pt"
 viewBox="0.00 0.00 372.58 523.00" xmlns="http://www.w3.org/2000/svg" xmlns:xlink="http://www.w3.org/1999/xlink">
<g id="graph0" class="graph" transform="scale(1 1) rotate(0) translate(4 519)">
<title>models_diagram</title>
<polygon fill="white" stroke="none" points="-4,4 -4,-519 368.579,-519 368.579,4 -4,4"/>
<!-- _diagram_info -->
<g id="node1" class="node"><title>_diagram_info</title>
<text text-anchor="start" x="8" y="-479.6" font-family="Times,serif" font-size="13.00">Models diagram</text>
<text text-anchor="start" x="8" y="-466.6" font-family="Times,serif" font-size="13.00">Date: Mar 04 2015 &#45; 11:07</text>
<text text-anchor="start" x="8" y="-453.6" font-family="Times,serif" font-size="13.00">Migration version: 20150304091105</text>
<text text-anchor="start" x="8" y="-440.6" font-family="Times,serif" font-size="13.00">Generated by RailRoady 1.3.0</text>
<text text-anchor="start" x="8" y="-427.6" font-family="Times,serif" font-size="13.00">http://railroady.prestonlee.com</text>
</g>
<!-- Booking -->
<g id="node2" class="node"><title>Booking</title>
<path fill="none" stroke="black" d="M123.668,-0.5C123.668,-0.5 297.231,-0.5 297.231,-0.5 303.231,-0.5 309.231,-6.5 309.231,-12.5 309.231,-12.5 309.231,-130.5 309.231,-130.5 309.231,-136.5 303.231,-142.5 297.231,-142.5 297.231,-142.5 123.668,-142.5 123.668,-142.5 117.668,-142.5 111.668,-136.5 111.668,-130.5 111.668,-130.5 111.668,-12.5 111.668,-12.5 111.668,-6.5 117.668,-0.5 123.668,-0.5"/>
<text text-anchor="middle" x="210.45" y="-127.3" font-family="Times,serif" font-size="14.00">Booking</text>
<polyline fill="none" stroke="black" points="111.668,-120.5 309.231,-120.5 "/>
<text text-anchor="start" x="119.668" y="-105.3" font-family="Times,serif" font-size="14.00">id :integer</text>
<text text-anchor="start" x="119.668" y="-91.3" font-family="Times,serif" font-size="14.00">campaign_id :integer</text>
<text text-anchor="start" x="119.668" y="-77.3" font-family="Times,serif" font-size="14.00">social_media_profile_id :integer</text>
<text text-anchor="start" x="119.668" y="-63.3" font-family="Times,serif" font-size="14.00">status :string</text>
<text text-anchor="start" x="119.668" y="-49.3" font-family="Times,serif" font-size="14.00">comment :string</text>
<text text-anchor="start" x="119.668" y="-35.3" font-family="Times,serif" font-size="14.00">price :decimal</text>
<text text-anchor="start" x="119.668" y="-21.3" font-family="Times,serif" font-size="14.00">created_at :datetime</text>
<text text-anchor="start" x="119.668" y="-7.3" font-family="Times,serif" font-size="14.00">updated_at :datetime</text>
</g>
<!-- Campaign -->
<g id="node3" class="node"><title>Campaign</title>
<path fill="none" stroke="black" d="M71.0479,-179.5C71.0479,-179.5 187.852,-179.5 187.852,-179.5 193.852,-179.5 199.852,-185.5 199.852,-191.5 199.852,-191.5 199.852,-351.5 199.852,-351.5 199.852,-357.5 193.852,-363.5 187.852,-363.5 187.852,-363.5 71.0479,-363.5 71.0479,-363.5 65.0479,-363.5 59.0479,-357.5 59.0479,-351.5 59.0479,-351.5 59.0479,-191.5 59.0479,-191.5 59.0479,-185.5 65.0479,-179.5 71.0479,-179.5"/>
<text text-anchor="middle" x="129.45" y="-348.3" font-family="Times,serif" font-size="14.00">Campaign</text>
<polyline fill="none" stroke="black" points="59.0479,-341.5 199.852,-341.5 "/>
<text text-anchor="start" x="67.0479" y="-326.3" font-family="Times,serif" font-size="14.00">id :integer</text>
<text text-anchor="start" x="67.0479" y="-312.3" font-family="Times,serif" font-size="14.00">name :string</text>
<text text-anchor="start" x="67.0479" y="-298.3" font-family="Times,serif" font-size="14.00">status :string</text>
<text text-anchor="start" x="67.0479" y="-284.3" font-family="Times,serif" font-size="14.00">budget :integer</text>
<text text-anchor="start" x="67.0479" y="-270.3" font-family="Times,serif" font-size="14.00">starts_at :datetime</text>
<text text-anchor="start" x="67.0479" y="-256.3" font-family="Times,serif" font-size="14.00">ends_at :datetime</text>
<text text-anchor="start" x="67.0479" y="-242.3" font-family="Times,serif" font-size="14.00">brand :string</text>
<text text-anchor="start" x="67.0479" y="-228.3" font-family="Times,serif" font-size="14.00">description :text</text>
<text text-anchor="start" x="67.0479" y="-214.3" font-family="Times,serif" font-size="14.00">campaign_type :string</text>
<text text-anchor="start" x="67.0479" y="-200.3" font-family="Times,serif" font-size="14.00">created_at :datetime</text>
<text text-anchor="start" x="67.0479" y="-186.3" font-family="Times,serif" font-size="14.00">updated_at :datetime</text>
</g>
<!-- Campaign&#45;&gt;Booking -->
<g id="edge1" class="edge"><title>Campaign&#45;&gt;Booking</title>
<path fill="none" stroke="#c145d0" d="M169.816,-171.827C172.513,-165.233 175.212,-158.638 177.863,-152.157"/>
<ellipse fill="none" stroke="#c145d0" cx="168.264" cy="-175.622" rx="4.00002" ry="4.00002"/>
<polygon fill="#c145d0" stroke="#c145d0" points="177.921,-152.014 185.872,-144.463 179.814,-147.386 181.708,-142.759 181.708,-142.759 181.708,-142.759 179.814,-147.386 177.543,-141.055 177.921,-152.014 177.921,-152.014"/>
</g>
<!-- SocialMediaProfile -->
<g id="node4" class="node"><title>SocialMediaProfile</title>
<path fill="none" stroke="black" d="M230.32,-193.5C230.32,-193.5 352.579,-193.5 352.579,-193.5 358.579,-193.5 364.579,-199.5 364.579,-205.5 364.579,-205.5 364.579,-337.5 364.579,-337.5 364.579,-343.5 358.579,-349.5 352.579,-349.5 352.579,-349.5 230.32,-349.5 230.32,-349.5 224.32,-349.5 218.32,-343.5 218.32,-337.5 218.32,-337.5 218.32,-205.5 218.32,-205.5 218.32,-199.5 224.32,-193.5 230.32,-193.5"/>
<text text-anchor="middle" x="291.45" y="-334.3" font-family="Times,serif" font-size="14.00">SocialMediaProfile</text>
<polyline fill="none" stroke="black" points="218.32,-327.5 364.579,-327.5 "/>
<text text-anchor="start" x="226.32" y="-312.3" font-family="Times,serif" font-size="14.00">id :integer</text>
<text text-anchor="start" x="226.32" y="-298.3" font-family="Times,serif" font-size="14.00">user_id :integer</text>
<text text-anchor="start" x="226.32" y="-284.3" font-family="Times,serif" font-size="14.00">profile_name :string</text>
<text text-anchor="start" x="226.32" y="-270.3" font-family="Times,serif" font-size="14.00">status :string</text>
<text text-anchor="start" x="226.32" y="-256.3" font-family="Times,serif" font-size="14.00">description :text</text>
<text text-anchor="start" x="226.32" y="-242.3" font-family="Times,serif" font-size="14.00">followers_count :string</text>
<text text-anchor="start" x="226.32" y="-228.3" font-family="Times,serif" font-size="14.00">city :string</text>
<text text-anchor="start" x="226.32" y="-214.3" font-family="Times,serif" font-size="14.00">created_at :datetime</text>
<text text-anchor="start" x="226.32" y="-200.3" font-family="Times,serif" font-size="14.00">updated_at :datetime</text>
</g>
<!-- SocialMediaProfile&#45;&gt;Booking -->
<g id="edge2" class="edge"><title>SocialMediaProfile&#45;&gt;Booking</title>
<path fill="none" stroke="#1bdfb1" d="M256.834,-185.883C252.224,-174.615 247.511,-163.093 242.939,-151.918"/>
<ellipse fill="none" stroke="#1bdfb1" cx="258.386" cy="-189.679" rx="4.00002" ry="4.00002"/>
<polygon fill="#1bdfb1" stroke="#1bdfb1" points="242.924,-151.881 243.302,-140.921 241.03,-147.253 239.137,-142.625 239.137,-142.625 239.137,-142.625 241.03,-147.253 234.972,-144.329 242.924,-151.881 242.924,-151.881"/>
</g>
<!-- User -->
<g id="node5" class="node"><title>User</title>
<path fill="none" stroke="black" d="M236.944,-400.5C236.944,-400.5 345.955,-400.5 345.955,-400.5 351.955,-400.5 357.955,-406.5 357.955,-412.5 357.955,-412.5 357.955,-502.5 357.955,-502.5 357.955,-508.5 351.955,-514.5 345.955,-514.5 345.955,-514.5 236.944,-514.5 236.944,-514.5 230.944,-514.5 224.944,-508.5 224.944,-502.5 224.944,-502.5 224.944,-412.5 224.944,-412.5 224.944,-406.5 230.944,-400.5 236.944,-400.5"/>
<text text-anchor="middle" x="291.45" y="-499.3" font-family="Times,serif" font-size="14.00">User</text>
<polyline fill="none" stroke="black" points="224.944,-492.5 357.955,-492.5 "/>
<text text-anchor="start" x="232.944" y="-477.3" font-family="Times,serif" font-size="14.00">id :integer</text>
<text text-anchor="start" x="232.944" y="-463.3" font-family="Times,serif" font-size="14.00">first_name :string</text>
<text text-anchor="start" x="232.944" y="-449.3" font-family="Times,serif" font-size="14.00">last_name :string</text>
<text text-anchor="start" x="232.944" y="-435.3" font-family="Times,serif" font-size="14.00">email :string</text>
<text text-anchor="start" x="232.944" y="-421.3" font-family="Times,serif" font-size="14.00">created_at :datetime</text>
<text text-anchor="start" x="232.944" y="-407.3" font-family="Times,serif" font-size="14.00">updated_at :datetime</text>
</g>
<!-- User&#45;&gt;SocialMediaProfile -->
<g id="edge3" class="edge"><title>User&#45;&gt;SocialMediaProfile</title>
<path fill="none" stroke="#ab3f6c" d="M291.45,-391.927C291.45,-381.589 291.45,-370.743 291.45,-359.979"/>
<ellipse fill="none" stroke="#ab3f6c" cx="291.45" cy="-396.294" rx="4" ry="4"/>
<polygon fill="#ab3f6c" stroke="#ab3f6c" points="291.45,-359.704 295.95,-349.704 291.45,-354.704 291.45,-349.704 291.45,-349.704 291.45,-349.704 291.45,-354.704 286.95,-349.704 291.45,-359.704 291.45,-359.704"/>
</g>
</g>
</svg>
